# xmcd CD database file
#
# Track frame offsets:
#	150
#	900
#	1650
#	2400
#	3150
#	3900
#	4650
#	5400
#	6150
#	6900
#	7650
#	8400
#	9150
#	9900
#	10650
#	11400
#	12150
#	12900
#	13650
#	14400
#	319506
#
# Disc length: 4795 seconds
#
# Revision: 2
# Processed by: cddbd v1.4PL0 Copyright (c) Steve Scherf et al.
# Submitted via: CDex 1.50Beta7
#
DISCID=9812b915
DTITLE=DePhazz - Daily Lama
DYEAR=2002
DGENRE=Jazz
TTITLE0=Looks
TTITLE1=You Stayed
TTITLE2=What's Behind
TTITLE3=Wrong Dance
TTITLE4=Atomic Cocktail
TTITLE5=Cup Of Hope
TTITLE6=True North
TTITLE7=Almost Gone
TTITLE8=Nightmare
TTITLE9=Preachin' To The Choir
TTITLE10=Try
TTITLE11=Dummes Spiel
TTITLE12=Things and Times
TTITLE13=Delle De Jour
TTITLE14=Wait
TTITLE15=Down The Railroad
TTITLE16=Désert D'Amour
TTITLE17=Style
TTITLE18=Word In a Rhyme
TTITLE19=Jean-Mi
TTITLE20=Track21
EXTD=YEAR: 2002
EXTT0=
EXTT1=
EXTT2=
EXTT3=
EXTT4=
EXTT5=
EXTT6=
EXTT7=
EXTT8=
EXTT9=
EXTT10=
EXTT11=
EXTT12=
EXTT13=
EXTT14=
EXTT15=
EXTT16=
EXTT17=
EXTT18=
EXTT19=
EXTT20=
PLAYORDER=
